<svg xmlns="http://www.w3.org/2000/svg" width="16" height="16" viewBox="0 0 16 16" fill="none">
  <path fill-rule="evenodd" clip-rule="evenodd" d="M14.265 15.7115C14.465 15.9115 14.7112 16.0038 14.9728 16.0038C15.2344 16.0038 15.496 15.9115 15.6807 15.7115L15.7115 15.6807C16.0962 15.296 16.0962 14.6497 15.7115 14.265L12.8339 11.3874C13.7264 10.2025 14.2496 8.72517 14.2496 7.12479C14.2496 3.18538 11.0642 0 7.12479 0C3.18538 0 0 3.18538 0 7.12479C0 11.0642 3.18538 14.265 7.14018 14.2496C8.74056 14.2496 10.2178 13.7264 11.4027 12.8339L14.265 15.7115ZM10.3563 11.4489C9.41765 12.1568 8.2943 12.5261 7.12479 12.5261C4.15484 12.5261 1.73888 10.1101 1.73888 7.12479C1.73888 4.15485 4.13946 1.72349 7.12479 1.72349C10.1101 1.72349 12.5261 4.15485 12.5261 7.12479C12.5261 8.2943 12.1568 9.41765 11.4489 10.3563L10.9873 10.9873L10.3563 11.4489Z" fill="#9F9F9F"/>
</svg>