<svg xmlns="http://www.w3.org/2000/svg" width="16" height="16" viewBox="0 0 16 16" fill="none">
  <circle cx="8" cy="8" r="7.5" fill="#9F9F9F"/>
  <path fill-rule="evenodd" clip-rule="evenodd" d="M11.5891 4.78426L12.634 5.83252C12.634 5.83252 13.4575 6.97948 12.634 7.92905L10.2977 10.2728C9.72047 10.8517 8.78481 10.8517 8.20757 10.2728L7.16266 9.22439C6.58541 8.64556 6.58541 7.70687 7.16266 7.12787L7.92868 7.88624C7.91966 7.93985 7.90648 7.98738 7.89418 8.03175C7.83654 8.2396 7.79807 8.37837 8.29573 8.75034L8.5826 9.22328C8.96738 9.60917 9.5911 9.60917 9.97587 9.22328L11.6772 7.45499C12.062 7.06893 12.062 6.44313 11.6772 6.05725L11.3289 5.70778C10.9441 5.32189 10.3202 5.32189 9.93545 5.70778L9.62702 6.04814L8.93302 5.3829C9.54015 4.77387 9.49893 4.78426 9.49893 4.78426C10.0762 4.20526 11.0118 4.20526 11.5891 4.78426ZM4.91856 10.2939C5.30332 10.68 5.68092 10.7108 6.25033 10.2013L6.8528 9.50424L7.56501 10.1877L6.56802 11.2187C5.99077 11.7975 5.05496 11.7975 4.47788 11.2187L3.43281 10.1704C2.85573 9.59145 2.85573 8.65276 3.43281 8.07392L6.01553 5.4832C6.59277 4.9042 7.52843 4.9042 8.10551 5.4832L9.15058 6.53147C9.72781 7.11031 9.72781 8.049 9.15058 8.628L8.30852 7.98351C8.47048 7.62014 8.40275 7.17897 8.10551 6.88078L7.75732 6.53146C7.37254 6.14541 6.74866 6.14541 6.3639 6.53146L4.47788 8.42323C4.0931 8.80928 4.0931 9.43508 4.47788 9.82096L4.91856 10.2939Z" fill="white"/>
</svg>