<svg xmlns="http://www.w3.org/2000/svg" width="8" height="16" viewBox="0 0 8 16" fill="none">
  <path d="M8 11C8 10.8151 7.92935 10.6301 7.78837 10.4891C7.50672 10.2072 7.04892 10.2072 6.76727 10.4891L4.72194 12.5345L4.72 1.722C4.72 1.32325 4.39675 1 3.998 1C3.59925 1 3.276 1.32325 3.276 1.722V7.66667L3.2779 12.5348L1.23225 10.4895C0.950291 10.2075 0.492808 10.2075 0.211472 10.4895C-0.0704908 10.7711 -0.0704908 11.2286 0.211472 11.5105L3.48922 14.7883C3.77149 15.0706 4.22835 15.0706 4.51031 14.7883L7.78837 11.5102C7.92935 11.3696 8 11.1846 8 11Z" fill="#202020"/>
</svg>