<svg width="34" height="34" viewBox="0 0 34 34" fill="none" xmlns="http://www.w3.org/2000/svg">
<path d="M17 0C13.6377 0 10.3509 0.997032 7.55531 2.86502C4.75968 4.733 2.58074 7.38804 1.29406 10.4944C0.00736573 13.6007 -0.329291 17.0189 0.326658 20.3165C0.982606 23.6142 2.6017 26.6433 4.97919 29.0208C7.35668 31.3983 10.3858 33.0174 13.6835 33.6733C16.9811 34.3293 20.3993 33.9926 23.5056 32.7059C26.612 31.4193 29.267 29.2403 31.135 26.4447C33.003 23.6491 34 20.3623 34 17C34 12.4913 32.2089 8.1673 29.0208 4.97918C25.8327 1.79107 21.5087 0 17 0ZM25.415 23.018L23.018 25.415L17 19.397L10.982 25.415L8.58501 23.018L14.603 17L8.58501 10.982L10.982 8.585L17 14.603L23.018 8.585L25.415 10.982L19.397 17L25.415 23.018Z" fill="#E54545"/>
</svg>
