<svg xmlns="http://www.w3.org/2000/svg" width="16" height="16" viewBox="0 0 16 16" fill="none">
  <path fill-rule="evenodd" clip-rule="evenodd" d="M9.91524 1.16655C9.38173 0.718502 8.68644 0.5 7.99985 0.5C7.3133 0.5 6.61801 0.718502 6.0845 1.16655C5.59205 1.58009 5.25043 2.17869 5.17678 2.94623C5.17531 2.96163 5.15705 2.96929 5.14505 2.95956C4.53721 2.46789 3.86211 2.28101 3.21442 2.32944C2.51255 2.38191 1.86322 2.70875 1.37841 3.18327C0.893562 3.65782 0.560603 4.29241 0.507448 4.97705C0.453799 5.66806 0.687061 6.39166 1.30222 7.02676C1.35817 7.08425 1.41498 7.1414 1.47265 7.19814L1.54234 7.26557C1.81936 7.5307 2.10495 7.76944 2.3947 7.98447C2.40506 7.99216 2.40506 8.00769 2.3947 8.01537C2.08085 8.24825 1.77188 8.50895 1.47341 8.80089C1.41476 8.85789 1.35734 8.91564 1.30113 8.9741C0.686706 9.60931 0.453676 10.3331 0.507498 11.0241C0.560833 11.7089 0.894009 12.3434 1.379 12.8177C1.86397 13.2921 2.51337 13.6187 3.21513 13.6709C3.86283 13.7192 4.53781 13.532 5.14528 13.0401C5.15731 13.0304 5.17554 13.0381 5.17704 13.0535C5.25061 13.8212 5.59224 14.4199 6.08476 14.8334C6.61828 15.2815 7.31356 15.5 8.00015 15.5C8.6867 15.5 9.38199 15.2815 9.9155 14.8334C10.408 14.4199 10.7496 13.8213 10.8232 13.0538C10.8247 13.0384 10.843 13.0307 10.855 13.0404C11.4628 13.5321 12.1379 13.719 12.7856 13.6706C13.4875 13.6181 14.1368 13.2913 14.6216 12.8167C15.1064 12.3422 15.4394 11.7076 15.4925 11.0229C15.5462 10.3319 15.313 9.60834 14.6978 8.97324C14.6418 8.91575 14.585 8.8586 14.5274 8.80186L14.4577 8.73443C14.1807 8.46929 13.895 8.23055 13.6053 8.01552C13.5949 8.00784 13.5949 7.99231 13.6053 7.98462C13.9192 7.75175 14.2281 7.49105 14.5266 7.19915C14.5852 7.14211 14.6427 7.08436 14.6989 7.0259C15.3133 6.39068 15.5463 5.66693 15.4925 4.97592C15.4392 4.29113 15.106 3.65664 14.621 3.18225C14.1361 2.7079 13.4866 2.38133 12.7849 2.32908C12.1372 2.28085 11.4622 2.46795 10.8547 2.95984C10.8427 2.96958 10.8245 2.96192 10.823 2.94651C10.7494 2.17884 10.4077 1.58014 9.91524 1.16655ZM8.56194 8.32485V8.32352C8.80651 8.24195 9.05878 8.41576 9.12598 8.71122C9.19318 9.00796 9.04996 9.31409 8.80651 9.39566C8.78776 9.40235 8.3372 9.5534 8.00559 9.5534C7.74409 9.5534 7.40856 9.45945 7.26923 9.41646L7.20911 9.39718L7.18626 9.38909C7.07662 9.34705 6.98559 9.2578 6.92818 9.13496C6.86761 9.00663 6.85216 8.85558 6.88524 8.71255C6.91828 8.56951 6.99429 8.45052 7.10116 8.37697C7.20691 8.30346 7.33029 8.28473 7.44928 8.32485C7.53961 8.35558 7.83594 8.44251 8.00559 8.44251C8.14697 8.44251 8.40038 8.37624 8.52987 8.33531L8.56194 8.32485ZM5.9013 7.3232C5.55727 7.3232 5.2763 7.52664 5.2763 7.77579V8.80385C5.2763 9.053 5.55727 9.25644 5.9013 9.25644C6.24539 9.25644 6.5263 9.053 6.5263 8.80385V7.77579C6.5263 7.52664 6.24688 7.3232 5.9013 7.3232ZM9.82494 7.77579C9.82494 7.52664 10.1044 7.3232 10.4499 7.3232C10.794 7.3232 11.0749 7.52664 11.0749 7.77579V8.80385C11.0749 9.053 10.794 9.25644 10.4499 9.25644C10.1059 9.25644 9.82494 9.053 9.82494 8.80385V7.77579Z" fill="#9F9F9F"/>
</svg>