<svg xmlns="http://www.w3.org/2000/svg" width="12" height="12" viewBox="0 0 12 12" fill="none">
  <path fill-rule="evenodd" clip-rule="evenodd" d="M4.42771 0.000217195V0H1.08434C0.485476 0 0 0.486208 0 1.08597V10.914C0 11.5138 0.485476 12 1.08434 12H10.9157C11.5145 12 12 11.5138 12 10.914V7.9638H11.9991C11.9803 7.58078 11.6642 7.27602 11.2771 7.27602C10.89 7.27602 10.5739 7.58078 10.5551 7.9638H10.5542V10.552H1.44578V1.44796H4.42771V1.44775L4.44578 1.44796C4.84502 1.44796 5.16867 1.12382 5.16867 0.723982C5.16867 0.324145 4.84502 0 4.44578 0L4.42771 0.000217195ZM12 1.08597C12 0.486208 11.5145 0 10.9157 0H7.51807V0.000904977C7.50611 0.000307692 7.49404 0 7.48193 0C7.08269 0 6.75904 0.324145 6.75904 0.723982C6.75904 1.12382 7.08269 1.44796 7.48193 1.44796C7.49404 1.44796 7.50611 1.44766 7.51807 1.44706V1.44796H9.52283L5.5213 5.45555C5.21783 5.75949 5.20066 6.2351 5.48295 6.51781C5.76528 6.80054 6.24014 6.78337 6.54361 6.47942L10.5542 2.46277V4.48867L10.5562 4.48869C10.5839 4.86317 10.8961 5.15837 11.2771 5.15837C11.6581 5.15837 11.9703 4.86317 11.998 4.48867H12V1.08597Z" fill="#202020"/>
</svg>