<svg xmlns="http://www.w3.org/2000/svg" width="24" height="24" viewBox="0 0 24 24" fill="none">
  <path fill-rule="evenodd" clip-rule="evenodd" d="M12 3C7.02944 3 3 7.02944 3 12C3 16.8818 6.88681 20.8558 11.7346 20.9962L12 21C12.8284 21 13.5 21.6716 13.5 22.5C13.5 23.3284 12.8284 24 12 24C5.37258 24 0 18.6274 0 12C0 5.37258 5.37258 0 12 0C18.5255 0 23.8344 5.20854 23.9962 11.695L24 12C24 12.8284 23.3284 13.5 22.5 13.5C21.6716 13.5 21 12.8284 21 12C21 7.02944 16.9706 3 12 3Z" fill="#F5BD07"/>
</svg>