<svg width="826" height="214" viewBox="0 0 826 214" fill="none" xmlns="http://www.w3.org/2000/svg">
<path fill-rule="evenodd" clip-rule="evenodd" d="M214 160.5C214 153.409 208.251 147.66 201.16 147.66H111V155H75V147.66H12.84C5.74866 147.66 0 153.409 0 160.5V201.16C0 208.251 5.74866 214 12.84 214H201.16C208.251 214 214 208.251 214 201.16V160.5ZM26.4 169.724H188.039C191.584 169.724 194.459 172.598 194.459 176.144V185.442C194.459 188.988 191.584 191.862 188.039 191.862H26.4C22.8543 191.862 19.98 188.988 19.98 185.442V176.144C19.98 172.598 22.8543 169.724 26.4 169.724Z" fill="#202020"/>
<path d="M107 22.1377C164.057 22.1377 210.31 62.6095 210.31 112.534C210.31 146.741 188.589 176.509 156.559 191.862H57.4403C25.4105 176.509 3.68945 146.741 3.68945 112.534C3.68945 62.6095 49.943 22.1377 107 22.1377Z" fill="#F5BD07"/>
<path d="M151.279 81.6908L96.0395 126.365C94.97 127.232 93.4669 127.305 92.3251 126.553L63.8671 108.039C62.5519 107.186 60.8175 107.417 59.7769 108.588C58.7507 109.759 58.7363 111.507 59.7624 112.693L91.9638 149.909C93.1056 151.224 95.1001 151.369 96.4153 150.242C96.502 150.169 96.5888 150.083 96.661 149.996L155.572 86.258C156.684 85.0584 156.684 83.1939 155.557 81.9943C154.43 80.7947 152.565 80.6646 151.279 81.6908Z" fill="#202020"/>
<path d="M107 22.1379C159.769 22.1379 203.27 56.7653 209.513 101.466C210.034 97.7987 210.3 94.1002 210.31 90.3966C210.31 40.4718 164.057 0 107 0C49.943 0 3.68945 40.4718 3.68945 90.3966C3.68945 94.1452 3.98094 97.8349 4.48642 101.466C10.7293 56.7653 54.2304 22.1379 107 22.1379Z" fill="#D3A203"/>
<path fill-rule="evenodd" clip-rule="evenodd" d="M103.311 0V22.1306C100.847 22.2078 98.3865 22.3604 95.932 22.5881V0.439069C98.3671 0.21769 100.828 0.0774828 103.311 0ZM121.76 0.848621V22.9755C119.324 22.6692 116.86 22.4626 114.38 22.304V0.169724C116.847 0.318606 119.308 0.545016 121.76 0.848621ZM84.863 24.1636V2.01824C82.3688 2.50159 79.9078 3.05134 77.4837 3.68228V25.8165C79.9244 25.1836 82.3855 24.6323 84.863 24.1636ZM66.4147 7.169V29.3217C63.8984 30.2626 61.4374 31.292 59.0354 32.3989V10.2572C61.4448 9.15034 63.8984 8.10986 66.4147 7.169ZM140.208 26.8349V4.71538C137.77 3.98418 135.309 3.33444 132.829 2.76724V24.931C135.319 25.4881 137.791 26.1117 140.208 26.8349ZM158.656 12.043V34.181C156.254 32.9634 153.793 31.8307 151.277 30.7828V8.6301C153.778 9.67494 156.24 10.8134 158.656 12.043ZM180.794 49.2384V27.0747C178.43 24.9647 175.967 22.9676 173.415 21.0901V43.2464C175.967 45.1272 178.429 47.1267 180.794 49.2384ZM199.239 49.6148V71.8007C197.049 68.0074 194.582 64.3805 191.859 60.9494V38.7783C194.583 42.2036 197.049 45.8257 199.239 49.6148ZM44.2768 40.6563V18.5073C41.7199 20.2193 39.2589 22.0272 36.8975 23.9422V46.1059C39.2739 44.1791 41.7362 42.3607 44.2768 40.6563ZM18.4492 43.7446C20.7056 40.4856 23.1705 37.3761 25.8285 34.4356V56.5624C23.1659 59.5224 20.7008 62.6543 18.4492 65.9378V43.7446Z" fill="#F5BD07"/>
<path fill-rule="evenodd" clip-rule="evenodd" d="M103.686 43.5783C103.686 41.5416 105.302 39.8887 107.335 39.8887H107.416C109.911 39.8887 112.438 39.992 114.932 40.1875C116.954 40.3657 118.461 42.129 118.323 44.1539C118.161 46.1869 116.386 47.7034 114.353 47.5447C112.045 47.3623 109.731 47.27 107.416 47.268C105.376 47.268 103.686 45.6224 103.686 43.5783ZM74.8994 48.2974C74.8994 46.7625 75.8661 45.3272 77.401 44.8033C79.8088 43.9835 82.2498 43.2646 84.7176 42.6485C85.6673 42.4123 86.672 42.5635 87.5102 43.0687C88.3483 43.574 88.9512 44.3918 89.1858 45.342C89.4233 46.2912 89.2737 47.296 88.7698 48.1348C88.266 48.9736 87.4493 49.5777 86.4997 49.8138C84.2453 50.3747 81.9835 51.0388 79.7845 51.7915C78.6568 52.1777 77.4121 51.9953 76.4426 51.3019C75.4731 50.6085 74.8983 49.4894 74.8994 48.2974ZM49.4297 62.3697C49.4281 61.2641 49.9223 60.216 50.7764 59.5139C52.751 57.897 54.7998 56.3727 56.916 54.9462C58.0081 54.208 59.4111 54.1085 60.5965 54.6852C61.7818 55.2619 62.5694 56.4272 62.6627 57.7421C62.7559 59.057 62.1406 60.3217 61.0484 61.0599C59.1225 62.3623 57.2573 63.7523 55.4586 65.2255C54.3553 66.1301 52.8293 66.3175 51.5399 65.7067C50.2505 65.0959 49.4288 63.7965 49.4297 62.3697ZM31.1032 84.8988C31.1017 84.3203 31.2383 83.7498 31.5017 83.2347C32.6663 80.9389 33.9572 78.7094 35.3684 76.5565C36.4851 74.8519 38.7722 74.3753 40.4768 75.492C42.1813 76.6087 42.6579 78.8958 41.5412 80.6003C40.2794 82.5263 39.1171 84.5335 38.0803 86.5702C37.3107 88.0964 35.5927 88.8933 33.9304 88.4951C32.2682 88.0969 31.0977 86.6081 31.1032 84.8988ZM24.3105 113.069V113.379C24.3105 115.42 25.9635 116.91 28.0002 116.907C30.0406 116.907 31.6899 115.106 31.6899 113.066C31.6907 110.776 31.8275 108.488 32.0994 106.214C32.3419 104.189 30.8973 102.352 28.8728 102.109C26.8483 101.867 25.0106 103.311 24.7681 105.336C24.4655 107.885 24.3105 110.487 24.3105 113.069ZM31.3121 131.197C29.5572 131.517 28.2825 133.047 28.2843 134.831C28.2838 135.274 28.3651 135.713 28.5241 136.126C29.4244 138.521 30.4797 140.897 31.6567 143.195C32.2591 144.368 33.4412 145.13 34.7579 145.194C36.0745 145.259 37.3256 144.616 38.0398 143.508C38.7541 142.4 38.823 140.996 38.2205 139.823C37.1742 137.778 36.2417 135.677 35.4275 133.528C34.7996 131.859 33.067 130.877 31.3121 131.197ZM46.4937 155.691C45.12 156.265 44.2261 157.609 44.2273 159.098C44.2287 160.085 44.6246 161.031 45.3268 161.725C47.1474 163.517 49.0509 165.224 51.031 166.839C52.0533 167.671 53.442 167.895 54.674 167.426C55.9061 166.957 56.7943 165.866 57.004 164.564C57.2138 163.263 56.7133 161.948 55.6911 161.116C53.8905 159.644 52.1453 158.087 50.5108 156.471C49.4518 155.424 47.8675 155.116 46.4937 155.691ZM70.0436 172.223C69.0031 172.904 68.3749 174.063 68.3724 175.306C68.3742 176.776 69.244 178.106 70.5899 178.697C72.9107 179.704 75.3053 180.627 77.7109 181.439C78.9651 181.879 80.3595 181.612 81.361 180.737C82.3625 179.863 82.8162 178.517 82.5486 177.215C82.2811 175.913 81.3337 174.855 80.0686 174.447L78.9666 174.064C77.1323 173.414 75.312 172.698 73.5379 171.927C72.3975 171.431 71.0842 171.543 70.0436 172.223ZM96.6647 182.003L96.6536 182.291C96.6558 184.218 98.141 185.819 100.063 185.966C102.476 186.154 104.948 186.243 107.416 186.243H107.649C109.689 186.243 111.22 184.597 111.22 182.553C111.22 180.516 109.453 178.863 107.413 178.863C105.136 178.863 102.852 178.782 100.627 178.609C99.6515 178.532 98.6854 178.847 97.942 179.484C97.1987 180.121 96.7391 181.027 96.6647 182.003ZM128.477 176.292C126.838 176.704 125.689 178.177 125.688 179.867C125.687 181.003 126.209 182.076 127.105 182.776C128 183.476 129.168 183.724 130.27 183.449C132.727 182.833 135.188 182.103 137.587 181.284C139.47 180.589 140.453 178.517 139.802 176.619C139.15 174.721 137.101 173.69 135.188 174.299C132.981 175.059 130.741 175.723 128.477 176.292ZM132.395 48.2494C132.397 47.0599 132.971 45.9438 133.938 45.2511C134.905 44.5584 136.146 44.3739 137.273 44.7553C139.686 45.5781 142.081 46.5005 144.39 47.5152C146.257 48.3333 147.107 50.5097 146.289 52.3763C145.471 54.2429 143.294 55.0928 141.428 54.2746C139.291 53.3372 137.114 52.4927 134.904 51.7435C133.366 51.2196 132.395 49.788 132.395 48.2494ZM153.913 165.001C152.899 165.689 152.292 166.835 152.294 168.06C152.297 169.424 153.053 170.675 154.258 171.314C155.463 171.952 156.923 171.874 158.053 171.111C160.156 169.683 162.222 168.145 164.185 166.529C165.76 165.234 165.986 162.908 164.691 161.334C163.396 159.76 161.07 159.533 159.496 160.828C157.701 162.306 155.839 163.698 153.913 165.001ZM157.906 62.2591C157.904 60.833 158.726 59.5341 160.015 58.9239C161.303 58.3138 162.829 58.5019 163.931 59.4069C165.916 61.0267 167.831 62.7498 169.628 64.5319C170.59 65.4544 170.98 66.8242 170.647 68.1151C170.315 69.406 169.312 70.4173 168.024 70.7606C166.812 71.0836 165.524 70.7676 164.601 69.9336L164.433 69.7712C162.784 68.1384 161.057 66.5857 159.26 65.1185C158.399 64.4194 157.901 63.368 157.906 62.2591ZM173.365 145.413C172.974 146.01 172.766 146.709 172.768 147.424C172.766 149.056 173.838 150.496 175.402 150.962C176.967 151.429 178.652 150.812 179.545 149.446C180.955 147.287 182.254 145.036 183.401 142.76C183.995 141.582 183.915 140.177 183.192 139.074C182.469 137.971 181.212 137.337 179.896 137.412C178.579 137.486 177.402 138.258 176.808 139.436C175.774 141.492 174.625 143.487 173.365 145.413ZM176.276 84.7659C176.285 83.0659 177.452 81.591 179.105 81.1917C180.757 80.7923 182.469 81.5714 183.254 83.0798C184.424 85.3759 185.465 87.7361 186.371 90.1492C187.087 92.0575 186.119 94.1843 184.211 94.8996C182.303 95.6148 180.176 94.6476 179.461 92.7393C178.664 90.6104 177.73 88.4925 176.682 86.4337C176.417 85.9178 176.277 85.3462 176.276 84.7659ZM182.755 119.781C182.738 119.924 182.729 120.068 182.73 120.212C182.732 122.165 184.254 123.777 186.203 123.892C188.152 124.006 189.852 122.583 190.083 120.644C190.375 118.143 190.452 115.571 190.522 112.97L186.832 112.918H190.522C190.522 110.881 188.873 109.306 186.832 109.306C184.796 109.306 183.143 111.033 183.143 113.073C183.143 115.309 183.014 117.567 182.755 119.781Z" fill="#D3A203"/>
<path fill-rule="evenodd" clip-rule="evenodd" d="M713.099 88.8576V37H688.91V88.8576H681.892V113.062H688.91V153.248C688.924 166.325 699.514 176.922 712.583 176.936H724.677V152.731H713.099V113.062L724.677 113.062V88.8576H713.099ZM323.342 37.0068L322.601 37H278L278.003 61.2046V176.998H322.599C347.34 176.97 367.388 156.908 367.416 132.151V81.8508C367.39 57.3414 347.741 37.4298 323.342 37.0068ZM539.504 177L575.943 88.8576H549.766L526.416 145.338L515.113 118H488.937L513.328 177H539.504ZM407.465 92.8083C426.625 84.1904 449.203 90.3226 461.379 107.454H461.393C461.717 107.913 462.025 108.381 462.333 108.853C462.527 109.149 462.715 109.45 462.901 109.75C463.283 110.37 463.653 111.001 464.011 111.643C464.153 111.899 464.291 112.158 464.429 112.418C464.867 113.244 465.285 114.083 465.673 114.945L465.877 115.414L466.045 115.806L470.795 127.048L446.405 137.135L416.175 149.627C419.235 151.511 422.783 152.445 426.373 152.317L426.834 152.315C433.865 152.244 439.359 150.508 446.351 144.546L462.025 162.978C450.679 172.646 440.302 176.858 427.462 176.987L426.234 176.993C412.514 176.976 399.518 170.766 390.878 160.072L390.32 159.353C388.874 157.451 387.585 155.431 386.472 153.314L386.051 152.486C384.562 149.497 383.427 146.344 382.666 143.089L382.618 142.879C377.898 122.395 388.302 101.428 407.465 92.8083ZM816.584 107.454C804.408 90.3226 781.829 84.1904 762.669 92.8083C743.507 101.428 733.103 122.395 737.823 142.879L737.871 143.089C738.631 146.344 739.767 149.497 741.255 152.486L741.677 153.314C742.79 155.431 744.078 157.451 745.525 159.353L746.083 160.072C754.722 170.766 767.718 176.976 781.439 176.993L782.667 176.987C795.507 176.858 805.884 172.646 817.23 162.978L801.556 144.546C794.564 150.508 789.07 152.244 782.038 152.315L781.577 152.317C777.987 152.445 774.439 151.511 771.379 149.627L801.61 137.135L826 127.048L821.25 115.806L821.082 115.414L820.878 114.945C820.49 114.083 820.072 113.244 819.634 112.418C819.496 112.158 819.358 111.899 819.216 111.643C818.858 111.001 818.488 110.37 818.106 109.75C817.92 109.45 817.732 109.149 817.538 108.853C817.23 108.381 816.922 107.913 816.598 107.454H816.584ZM627.903 88.8616L628.631 88.8683C652.589 89.286 671.884 108.834 671.914 132.9C671.914 150.714 661.192 166.773 644.746 173.59C628.299 180.406 609.369 176.638 596.783 164.043C584.195 151.448 580.431 132.505 587.243 116.048C594.055 99.5909 610.103 88.8616 627.903 88.8616ZM322.601 61.2046H302.191V152.795H322.599C333.988 152.781 343.214 143.549 343.228 132.153V81.8448C343.214 70.451 333.988 61.2186 322.601 61.2046ZM613.885 118.872C619.553 113.198 628.081 111.501 635.49 114.571C642.896 117.641 647.726 124.874 647.726 132.898C647.716 143.849 638.848 152.723 627.903 152.737C619.885 152.735 612.657 147.902 609.589 140.491C606.519 133.078 608.215 124.546 613.885 118.872ZM424.987 113.158C422.621 113.15 420.279 113.641 418.113 114.597C412.029 117.302 407.809 122.986 406.961 129.576L406.913 129.974L437.079 117.507C436.955 117.393 436.831 117.281 436.703 117.175C433.349 114.577 429.229 113.164 424.987 113.158ZM773.317 114.597C775.483 113.641 777.825 113.15 780.191 113.158C784.433 113.164 788.553 114.577 791.908 117.175C792.036 117.281 792.16 117.393 792.284 117.507L762.117 129.974L762.166 129.576C763.014 122.986 767.234 117.302 773.317 114.597Z" fill="#202020"/>
</svg>
