<svg xmlns="http://www.w3.org/2000/svg" width="14" height="14" viewBox="0 0 14 14" fill="none">
  <path fill-rule="evenodd" clip-rule="evenodd" d="M10.3273 2.86096L7.82756 0.334701C7.38567 -0.111567 6.66955 -0.111567 6.22767 0.334701L3.71132 2.87762C3.52131 3.07453 3.44659 3.35819 3.51579 3.62537C3.58697 3.90018 3.79934 4.1148 4.07127 4.18673C4.34321 4.25867 4.63239 4.17672 4.82728 3.97239L6.22216 2.56261L6.22222 9.85487C6.22222 10.3789 6.48148 10.6409 7 10.6409L7.0245 10.6407C7.52668 10.6325 7.77778 10.3706 7.77778 9.85487L7.77777 2.5075L9.22756 3.97239C9.42284 4.17672 9.71202 4.25867 9.98395 4.18673C10.2559 4.1148 10.4683 3.90018 10.5394 3.62537C10.6106 3.35055 10.5295 3.05831 10.3273 2.86096ZM14 9.06886C14 8.63475 13.6518 8.28284 13.2222 8.28284C12.7927 8.28284 12.4444 8.63475 12.4444 9.06886V12.2315C12.4444 12.305 12.2986 12.428 12.0556 12.428H1.94444C1.70139 12.428 1.55556 12.305 1.55556 12.2315V9.06886C1.55556 8.78804 1.40731 8.52855 1.16667 8.38815C0.926021 8.24774 0.629534 8.24774 0.388889 8.38815C0.148244 8.52855 0 8.78804 0 9.06886V12.2315C0 13.2431 0.898722 14 1.94444 14H12.0556C13.1013 14 14 13.2431 14 12.2315V9.06886Z" fill="#9F9F9F"/>
</svg>