<svg xmlns="http://www.w3.org/2000/svg" width="8" height="16" viewBox="0 0 8 16" fill="none">
  <path d="M8 5C8 5.18494 7.92935 5.36988 7.78837 5.51086C7.50672 5.79283 7.04892 5.79283 6.76727 5.51086L4.72194 3.46553L4.72 14.278C4.72 14.6767 4.39675 15 3.998 15C3.59925 15 3.276 14.6767 3.276 14.278V8.33333L3.2779 3.46522L1.23225 5.51055C0.950291 5.79251 0.492808 5.79251 0.211472 5.51055C-0.0704908 5.2289 -0.0704908 4.77142 0.211472 4.48945L3.48922 1.21171C3.77149 0.929431 4.22835 0.929431 4.51031 1.21171L7.78837 4.48977C7.92935 4.63043 8 4.81537 8 5Z" fill="#202020"/>
</svg>