<svg xmlns="http://www.w3.org/2000/svg" width="16" height="16" viewBox="0 0 16 16" fill="none">
  <path d="M16 3.02336C15.4002 3.29006 14.7638 3.46534 14.112 3.54336C14.7965 3.13286 15.3083 2.4874 15.552 1.72736C14.9066 2.11084 14.2004 2.38139 13.464 2.52736C12.5408 1.5504 11.115 1.23556 9.86629 1.73294C8.61756 2.23031 7.79867 3.43922 7.8 4.78336C7.8011 5.03389 7.83062 5.28348 7.888 5.52736C5.24603 5.39316 2.78556 4.14257 1.12 2.08736C0.827054 2.58719 0.672427 3.156 0.672 3.73536C0.642477 4.82211 1.16673 5.84952 2.064 6.46336C1.52 6.44736 0.504 6.30336 0.504 6.05536V6.09536C0.545646 7.66328 1.669 8.99269 3.208 9.29536C2.94756 9.36839 2.67848 9.40606 2.408 9.40736C2.20666 9.40809 2.00572 9.38934 1.808 9.35136C2.24104 10.6887 3.47458 11.6042 4.88 11.6314C3.71925 12.5521 2.28158 13.0539 0.8 13.0554C0.532626 13.055 0.265503 13.0389 0 13.0074C1.50136 13.9707 3.24818 14.4817 5.032 14.4794C7.51881 14.5052 9.91175 13.5309 11.6733 11.7754C13.4348 10.0198 14.4173 7.63024 14.4 5.14336V4.71936C15.0287 4.25232 15.5703 3.67822 16 3.02336Z" fill="#9F9F9F"/>
</svg>