<svg xmlns="http://www.w3.org/2000/svg" width="18" height="18" viewBox="0 0 18 18" fill="none">
  <circle cx="9" cy="9" r="8.5" stroke="#F5BD07"/>
  <path fill-rule="evenodd" clip-rule="evenodd" d="M9.38353 4C8.9832 4 8.65145 4.14286 8.39328 4.41944C8.13372 4.70518 8.00002 5.05388 8.00002 5.46485C8.00002 5.59441 8.07816 6.02855 8.18486 6.62144C8.36531 7.62405 8.62747 9.08064 8.73164 10.286L8.74128 10.4026H10.0364C10.1485 9.23996 10.3878 7.81444 10.5603 6.78729C10.6739 6.11036 10.7585 5.60646 10.7585 5.46485C10.7585 5.04471 10.6255 4.696 10.3752 4.41944C10.1163 4.13368 9.78528 4 9.38353 4ZM9.38353 14C9.75838 14 10.0809 13.867 10.3476 13.5996C10.6255 13.3309 10.7585 13.0098 10.7585 12.6264C10.7585 12.2515 10.6255 11.9198 10.3476 11.6531C10.0802 11.3751 9.75838 11.2414 9.38353 11.2414C9.00863 11.2414 8.67833 11.3751 8.41026 11.6531C8.13298 11.9198 8 12.2515 8 12.6264C8 13.0098 8.13298 13.3309 8.41026 13.5996C8.67833 13.867 9.00863 14 9.38353 14Z" fill="#F5BD07"/>
</svg>