<svg xmlns="http://www.w3.org/2000/svg" width="18" height="18" viewBox="0 0 18 18" fill="#F5BD07">
  <path fill-rule="evenodd" clip-rule="evenodd" d="M13.9859 5.92087C13.9859 3.20312 11.7827 1 9.06498 1C6.34722 1 4.1441 3.20312 4.1441 5.92087C4.1441 8.63863 6.34722 10.8417 9.06498 10.8417C11.7827 10.8417 13.9859 8.63863 13.9859 5.92087ZM14.2822 10.2015C14.1359 10.0831 13.9534 10.0185 13.7652 10.0186C13.5859 10.0186 13.4066 10.077 13.2576 10.1938C12.1413 11.0686 10.6524 11.5505 9.06498 11.5505C7.47759 11.5505 5.98863 11.0686 4.87239 10.1938C4.72755 10.0802 4.54879 10.0185 4.36474 10.0186C4.17643 10.0185 3.9938 10.0831 3.84742 10.2015C3.16673 10.7516 2.62955 11.3975 2.25091 12.1212C1.85223 12.8835 1.65002 13.693 1.65002 14.5276C1.65002 15.3208 1.83755 15.8804 2.13996 16.5262C2.27545 16.8153 2.56594 17 2.88525 17H15.2443C15.5638 17 15.8542 16.8153 15.9896 16.5262C16.2922 15.8804 16.4796 15.3208 16.4796 14.5276C16.4796 13.693 16.2774 12.8835 15.8787 12.1212C15.5 11.3974 14.963 10.7516 14.2822 10.2015Z" fill="#F5BD07"/>
</svg>