<svg xmlns="http://www.w3.org/2000/svg" width="38" height="38" viewBox="0 0 38 38" fill="none">
  <circle cx="19" cy="19" r="18" stroke="#F5BD07"/>
  <g transform="translate(11, 11) scale(0.8889)">
    <path fill-rule="evenodd" clip-rule="evenodd" d="M10.8 0V5.625H16.425V7.875H1.80005V1.125C1.80005 0.502875 2.30405 0 2.92505 0H10.8ZM10.7627 9.66013C10.3301 9.22004 9.76934 9 9.08029 9C8.38622 9 7.82354 9.22004 7.39226 9.66013C6.96097 10.1002 6.74533 10.6572 6.74533 11.3312V12.3195C6.74533 12.996 6.9616 13.5536 7.39414 13.9924C7.82668 14.4313 8.39125 14.6507 9.08784 14.6507C9.7794 14.6507 10.3396 14.4313 10.7683 13.9924C11.1971 13.5536 11.4115 12.996 11.4115 12.3195V11.3312C11.4115 10.6572 11.1952 10.1002 10.7627 9.66013ZM16.425 16.875V15.75H1.80005V16.875L1.80038 16.9028C1.81512 17.512 2.31332 18 2.92505 18H15.3C15.9222 18 16.425 17.4971 16.425 16.875ZM14.2519 9C14.9485 9 15.4873 9.1622 15.8683 9.48661C16.2493 9.81101 16.4347 10.2825 16.4247 10.9012L16.4133 10.9238H15.1723C15.1723 10.5868 15.1006 10.3454 14.9573 10.1995C14.814 10.0537 14.5788 9.98076 14.2519 9.98076C13.9652 9.98076 13.7452 10.0958 13.5918 10.3259C13.4384 10.556 13.3617 10.8622 13.3617 11.2444V12.3987C13.3617 12.7835 13.4459 13.0915 13.6144 13.3229C13.7829 13.5542 14.0243 13.6699 14.3387 13.6699C14.6304 13.6699 14.841 13.597 14.9705 13.4511C15.1 13.3053 15.1648 13.0613 15.1648 12.7193H16.4058L16.4133 12.742C16.4234 13.3681 16.2467 13.8428 15.8834 14.166C15.52 14.4891 15.0051 14.6507 14.3387 14.6507C13.6597 14.6507 13.1146 14.4432 12.7034 14.0283C12.2923 13.6133 12.0867 13.0701 12.0867 12.3987V11.252C12.0867 10.583 12.2847 10.0405 12.6808 9.62429C13.0769 9.2081 13.6006 9 14.2519 9ZM5.43263 9.71105C4.99757 9.28983 4.4569 9.07922 3.8106 9.07922H1.80005V14.5715H3.8106C4.4569 14.5715 4.99757 14.3615 5.43263 13.9415C5.86768 13.5215 6.08521 12.9809 6.08521 12.3195V11.3312C6.08521 10.6723 5.86768 10.1323 5.43263 9.71105ZM9.08029 9.98076C8.73577 9.98076 8.47235 10.1059 8.29003 10.3561C8.10771 10.6063 8.01655 10.9288 8.01655 11.3236V12.3195C8.01655 12.7168 8.10896 13.0412 8.2938 13.2927C8.47863 13.5442 8.74331 13.6699 9.08784 13.6699C9.4223 13.6699 9.68132 13.5442 9.8649 13.2927C10.0485 13.0412 10.1403 12.7168 10.1403 12.3195V11.3236C10.1403 10.9313 10.0478 10.6094 9.86301 10.358C9.67818 10.1065 9.41727 9.98076 9.08029 9.98076ZM3.07503 10.06H3.8106C4.0998 10.06 4.33807 10.1782 4.52542 10.4146C4.71277 10.6509 4.80645 10.954 4.80645 11.3236V12.3195C4.80645 12.6942 4.71277 12.9997 4.52542 13.2361C4.33807 13.4725 4.0998 13.5907 3.8106 13.5907H3.07503V10.06ZM16.425 4.5L11.925 0V4.5H16.425Z" fill="#F5BD07"/>
  </g>
</svg>
