<svg xmlns="http://www.w3.org/2000/svg" width="18" height="18" viewBox="0 0 18 18" fill="#F5BD07">
  <path fill-rule="evenodd" clip-rule="evenodd" d="M16.2005 5.28335C16.7111 6.25706 17.0855 7.2963 17.3132 8.37192L17.2481 8.21623L17.17 8.06665C17.0171 7.81726 16.8491 7.57749 16.6669 7.34868C16.4049 7.00382 16.1102 6.68512 15.7868 6.39705C15.384 6.05686 14.941 5.76732 14.4678 5.53492C13.9107 5.24737 13.3126 5.04747 12.6945 4.94227C12.0664 4.83486 11.2972 4.83486 10.387 4.94227C9.40113 5.0696 8.43565 5.32293 7.51424 5.69604L8.12008 7.07827C8.14656 7.12267 8.16476 7.17152 8.17378 7.22242C8.19047 7.3233 8.19804 7.42547 8.1964 7.5277C8.19853 7.65672 8.16599 7.78395 8.10217 7.89611C8.04282 7.99786 7.90996 8.07889 7.70739 8.13825C7.44239 8.20019 7.1674 8.20629 6.89991 8.15616L1.91694 6.96783L1.7479 6.88417C1.67925 6.84998 1.61313 6.81094 1.55004 6.76734C1.48143 6.71724 1.41827 6.66008 1.3616 6.5968C1.29849 6.53092 1.25226 6.45075 1.22686 6.36313C1.20186 6.26338 1.19579 6.15983 1.20896 6.05785C1.22546 5.92084 1.26163 5.78692 1.31637 5.66024L4.02711 0.812562L4.08082 0.758856C4.11748 0.728696 4.15656 0.701595 4.19765 0.677826C4.2613 0.637932 4.32739 0.602058 4.39552 0.570414C4.46992 0.538106 4.54864 0.516839 4.62918 0.507286C4.71574 0.495054 4.80379 0.498243 4.88923 0.516708C4.98911 0.543001 5.08141 0.592379 5.15871 0.660866C5.26441 0.750688 5.35535 0.856565 5.42818 0.974623L6.02083 2.35685C7.1758 1.90056 8.40558 1.66316 9.6474 1.65678C12.6386 1.59711 14.823 2.80597 16.2005 5.28335ZM1.67253 11.9813C1.29439 11.1253 1.01831 10.2278 0.849976 9.30727L0.855629 9.30633C0.867564 9.33459 0.881173 9.36537 0.896458 9.3987L1.00827 9.6295C1.15052 9.88123 1.30784 10.1241 1.47937 10.3569C1.72894 10.709 2.01473 11.0339 2.33207 11.3264C2.72715 11.6725 3.16168 11.9707 3.62667 12.2149C4.18032 12.5181 4.77654 12.736 5.3952 12.8613C6.03025 12.9932 6.79941 13.0142 7.70268 12.9244C8.68632 12.8148 9.65237 12.5824 10.5783 12.2328L10.0036 10.8327C10.0013 10.8108 9.99527 10.7894 9.98565 10.7696C9.9675 10.7081 9.9555 10.645 9.94985 10.5811C9.93713 10.4978 9.93713 10.4129 9.94985 10.3296C9.96791 10.2403 9.99506 10.1532 10.0309 10.0695C10.0692 9.97039 10.1475 9.89204 10.2466 9.85375C10.3722 9.80423 10.5022 9.76668 10.6348 9.74163C10.8453 9.71495 11.0589 9.73032 11.2633 9.78685L16.1826 11.0975C16.1971 11.1128 16.2157 11.1237 16.2363 11.1286L16.3093 11.1569L16.3795 11.1917C16.4497 11.2273 16.5158 11.2706 16.5764 11.3208C16.6421 11.3747 16.7024 11.435 16.7564 11.5007C16.8143 11.5688 16.857 11.6485 16.8817 11.7344C16.9067 11.8341 16.9128 11.9377 16.8996 12.0397C16.8833 12.1724 16.8407 12.3005 16.7743 12.4166L13.9486 17.1992C13.9191 17.2283 13.8876 17.2554 13.8544 17.2803C13.7799 17.3282 13.7018 17.3701 13.6207 17.4056C13.5144 17.4594 13.3985 17.4914 13.2796 17.4998C13.1505 17.5029 13.023 17.4703 12.9112 17.4056C12.7572 17.3099 12.6329 17.1732 12.5522 17.0108L11.9954 15.6107V15.6286C10.7127 16.0868 9.35238 16.2882 7.99194 16.2212C5.01266 16.0874 2.90619 14.6741 1.67253 11.9813Z" fill="#F5BD07"/>
</svg>