<svg width="28" height="28" viewBox="0 0 28 28" fill="none" xmlns="http://www.w3.org/2000/svg">
<g clip-path="url(#clip0_1930_658)">
<path d="M23.7037 5.2408C21.9187 4.4358 20.0054 3.8408 18.0046 3.50247C17.9867 3.49904 17.9683 3.50125 17.9518 3.50877C17.9353 3.5163 17.9215 3.52877 17.9124 3.54447C17.6674 3.97497 17.3944 4.53613 17.2031 4.97947C15.081 4.66241 12.9236 4.66241 10.8016 4.97947C10.5885 4.48814 10.3481 4.00906 10.0817 3.54447C10.0727 3.52858 10.059 3.51582 10.0426 3.5079C10.0261 3.49998 10.0076 3.49727 9.98956 3.50013C7.98989 3.83847 6.07656 4.43347 4.29039 5.23963C4.27503 5.24608 4.262 5.25707 4.25306 5.27113C0.622394 10.6086 -0.372773 15.8143 0.116061 20.9546C0.117421 20.9672 0.121329 20.9794 0.127546 20.9904C0.133764 21.0015 0.142161 21.0111 0.152227 21.0188C2.27135 22.5616 4.63495 23.7369 7.14406 24.4955C7.16155 24.5008 7.18026 24.5008 7.19774 24.4954C7.21523 24.49 7.23067 24.4795 7.24206 24.4651C7.78199 23.743 8.26044 22.977 8.67239 22.175C8.67811 22.164 8.68141 22.1519 8.68206 22.1396C8.68271 22.1272 8.6807 22.1149 8.67616 22.1034C8.67163 22.0919 8.66467 22.0815 8.65577 22.0729C8.64687 22.0643 8.63622 22.0577 8.62456 22.0536C7.8709 21.7698 7.14066 21.4273 6.44056 21.0293C6.42798 21.0221 6.41738 21.0119 6.40971 20.9996C6.40204 20.9873 6.39754 20.9734 6.39662 20.9589C6.39569 20.9444 6.39837 20.93 6.40441 20.9168C6.41045 20.9037 6.41967 20.8922 6.43123 20.8835C6.57823 20.775 6.72523 20.6618 6.86523 20.5486C6.87783 20.5385 6.89301 20.532 6.90908 20.5299C6.92514 20.5279 6.94147 20.5303 6.95623 20.537C11.5377 22.595 16.4996 22.595 21.0274 20.537C21.0422 20.5299 21.0587 20.5271 21.075 20.529C21.0913 20.5309 21.1067 20.5373 21.1196 20.5475C21.2596 20.6618 21.4054 20.775 21.5536 20.8835C21.5652 20.892 21.5746 20.9033 21.5808 20.9164C21.5871 20.9294 21.59 20.9438 21.5893 20.9583C21.5886 20.9727 21.5843 20.9868 21.5769 20.9992C21.5694 21.0116 21.559 21.0219 21.5466 21.0293C20.8489 21.4306 20.1232 21.7701 19.3614 22.0525C19.3497 22.0567 19.339 22.0634 19.3301 22.0721C19.3212 22.0808 19.3143 22.0913 19.3097 22.1029C19.3052 22.1145 19.3032 22.1269 19.3039 22.1393C19.3045 22.1518 19.3078 22.1639 19.3136 22.175C19.7336 22.9765 20.2142 23.7395 20.7427 24.464C20.7537 24.4788 20.769 24.4899 20.7866 24.4958C20.8041 24.5016 20.823 24.5019 20.8407 24.4966C23.3541 23.7402 25.7216 22.5644 27.8431 21.0188C27.8534 21.0116 27.8621 21.0022 27.8685 20.9913C27.875 20.9805 27.879 20.9684 27.8804 20.9558C28.4637 15.0128 26.9027 9.84913 23.7399 5.27347C23.7321 5.2586 23.7193 5.247 23.7037 5.2408ZM9.35723 17.8245C7.97823 17.8245 6.84073 16.5773 6.84073 15.0478C6.84073 13.5171 7.95606 12.2711 9.35723 12.2711C10.7689 12.2711 11.8959 13.5276 11.8737 15.0478C11.8737 16.5785 10.7584 17.8245 9.35723 17.8245ZM18.6614 17.8245C17.2812 17.8245 16.1449 16.5773 16.1449 15.0478C16.1449 13.5171 17.2591 12.2711 18.6614 12.2711C20.0731 12.2711 21.2001 13.5276 21.1779 15.0478C21.1779 16.5785 20.0742 17.8245 18.6614 17.8245Z" fill="#A7A7A7"/>
</g>
<defs>
<clipPath id="clip0_1930_658">
<rect width="28" height="28" fill="white"/>
</clipPath>
</defs>
</svg>
