<svg xmlns="http://www.w3.org/2000/svg" width="18" height="18" viewBox="0 0 18 18" fill="#9F9F9F">
  <path fill-rule="evenodd" clip-rule="evenodd" d="M17.5 3.66362C17.3665 3.14083 16.9579 2.73282 16.4349 2.60001H1.56213C1.04093 2.73394 0.633929 3.14093 0.5 3.66214V4.49926C2.0655 5.7453 3.76472 7.05635 5.20572 8.16817L5.20964 8.17119L6.58778 9.23653L7.28209 9.77512C8.72214 10.9044 8.79415 10.9608 10.1241 9.90326L10.4351 9.65501C10.8285 9.34137 11.3796 8.90701 12.0132 8.41003L14.3014 6.62114L17.5 4.13066V3.66362ZM17.497 14.6476V5.43556C15.6092 6.9014 13.7257 8.37284 11.8467 9.84988L17.4556 14.8526C17.4806 14.787 17.4946 14.7178 17.497 14.6476ZM16.4134 15.347L10.9999 10.519L10.9392 10.5649H10.9407C9.97849 11.3332 9.38636 11.7136 8.78757 11.7136C8.23379 11.7136 7.67447 11.3802 6.82947 10.7282L6.74103 10.6596L1.41188 15.347H16.4134ZM0.5 5.81082C1.67277 6.73505 2.85015 7.65342 4.03208 8.56589L5.40479 9.62367C5.57019 9.75152 5.73042 9.87622 5.88615 9.99939L0.516284 14.7253C0.509286 14.6995 0.503849 14.6733 0.5 14.6469V5.81082Z" fill="#9F9F9F"/>
</svg>