<svg width="27" height="20" viewBox="0 0 27 20" fill="none" xmlns="http://www.w3.org/2000/svg">
<path d="M1.92857 15.3438L9.13962 10L1.92857 4.65625L1.5067 4.34375L0 3.22812V16.7687L1.5067 15.6531L1.92857 15.3438ZM13.5 10.7719L25.0714 2.2L25.3125 2.02188L26.7288 0.975C26.3913 0.390625 25.7766 0 25.0714 0H1.92857C1.28069 0 0.708147 0.33125 0.358594 0.8375L1.92857 2.2L13.5 10.7719ZM16.2 11.2281L13.5 13.2281L10.8 11.2281L1.92857 17.8L1.5067 18.1594L0.34654 19.1437C0.69308 19.6625 1.27467 20 1.92857 20H25.0714C25.7796 20 26.3973 19.6062 26.7318 19.0187L25.0714 17.8L16.2 11.2281ZM25.0714 4.65625L17.8574 10L25.0714 15.3438L27 16.7719V3.22812L25.0714 4.65625Z" fill="#A7A7A7"/>
</svg>
