<svg xmlns="http://www.w3.org/2000/svg" width="18" height="18" viewBox="0 0 18 18" fill="#9F9F9F">
  <path fill-rule="evenodd" clip-rule="evenodd" d="M8.02933 2.16457C8.02933 1.64319 7.58615 1.20001 7.06477 1.20001H0.964562C0.417108 1.20001 0 1.64319 0 2.16457V15.8509C0 16.3723 0.443177 16.8155 0.964562 16.8155H7.06477C7.58615 16.8155 8.02933 16.3723 8.02933 15.8509C8.02933 15.3295 7.58615 14.8864 7.06477 14.8864H1.90305V3.12914H7.06477C7.61222 3.12914 8.02933 2.68596 8.02933 2.16457ZM12.724 3.26864C12.1739 2.71989 11.2285 3.11115 11.2285 3.91121V5.1104C11.2285 5.60571 10.8375 5.99675 10.3422 5.99675H6.24929C5.75397 5.99675 5.36293 6.38779 5.36293 6.88311V11.1324C5.36293 11.6277 5.75397 12.0187 6.24929 12.0187H10.3422C10.8375 12.0187 11.2285 12.4098 11.2285 12.9051V14.1043C11.2285 14.8864 12.1931 15.2774 12.7405 14.73L17.7458 9.64645C18.0847 9.28148 18.0847 8.73402 17.7458 8.39512L12.724 3.26864Z" fill="#9F9F9F"/>
</svg>