<svg xmlns="http://www.w3.org/2000/svg" width="171" height="40" viewBox="0 0 171 40" fill="none">
  <path fill-rule="evenodd" clip-rule="evenodd" d="M3.73832 31.0278H52.3364L56.0748 39.9998H0L3.73832 31.0278Z" fill="#202020"/>
  <path d="M16.7635 8.7267C23.2424 -0.00543213 34.4626 -2.6228 41.8245 2.88066C49.1864 8.38411 49.9022 19.9243 43.4233 28.6565C41.1442 31.7282 38.2784 34.0433 35.2001 35.5144L19.9173 35.5145C19.3829 35.2144 18.8637 34.8773 18.3624 34.5025C11.0005 28.9991 10.2847 17.4588 16.7635 8.7267Z" fill="#F5BD07"/>
  <path d="M19.9759 19.1065L26.8547 27.0567C27.0986 27.3376 27.5246 27.3685 27.8056 27.1277C27.8241 27.1122 27.8426 27.0937 27.8581 27.0752L40.4424 13.4596C40.6802 13.2034 40.6802 12.8051 40.4393 12.5488C40.1985 12.2926 39.8002 12.2648 39.5255 12.484L27.7253 22.0272C27.4968 22.2125 27.1757 22.2279 26.9318 22.0674L20.8527 18.1124C20.5717 17.9302 20.2012 17.9796 19.9789 18.2297C19.7597 18.4798 19.7567 18.8534 19.9759 19.1065Z" fill="#202020"/>
  <path fill-rule="evenodd" clip-rule="evenodd" d="M76.5125 6.91729L76.3741 6.91602H68.0374L68.0379 11.4402V33.0839H76.3737C80.9981 33.0786 84.7454 29.3288 84.7506 24.7013V15.2993C84.7458 10.7181 81.073 6.99635 76.5125 6.91729ZM116.917 33.0842L123.728 16.609H118.835L114.47 27.1662L112.358 22.0562H107.465L112.024 33.0842H116.917ZM92.2363 17.3475C95.8177 15.7366 100.038 16.8828 102.314 20.085H102.316C102.377 20.1707 102.435 20.2582 102.492 20.3465C102.528 20.4019 102.564 20.458 102.598 20.5141C102.67 20.6301 102.739 20.7479 102.806 20.868C102.832 20.9159 102.858 20.9642 102.884 21.0128C102.966 21.1673 103.044 21.324 103.116 21.4853L103.155 21.5728L103.186 21.6461L104.074 23.7474L99.5149 25.6328L93.8644 27.9678C94.4364 28.3199 95.0996 28.4946 95.7706 28.4706L95.8567 28.4702C97.171 28.4569 98.1979 28.1325 99.5048 27.018L102.435 30.4634C100.314 32.2703 98.3742 33.0576 95.9742 33.0818L95.7446 33.083C93.1801 33.0797 90.7509 31.919 89.1361 29.9202L89.0318 29.7857C88.7614 29.4303 88.5206 29.0526 88.3125 28.6569L88.2338 28.5022C87.9556 27.9434 87.7433 27.3541 87.6011 26.7457L87.5922 26.7064C86.7099 22.8776 88.6546 18.9587 92.2363 17.3475ZM168.707 20.085C166.431 16.8828 162.211 15.7366 158.63 17.3475C155.048 18.9587 153.103 22.8776 153.986 26.7064L153.995 26.7457C154.137 27.3541 154.349 27.9434 154.627 28.5022L154.706 28.6569C154.914 29.0526 155.155 29.4303 155.425 29.7857L155.529 29.9202C157.144 31.919 159.573 33.0797 162.138 33.083L162.368 33.0818C164.768 33.0576 166.707 32.2703 168.828 30.4634L165.898 27.018C164.591 28.1325 163.564 28.4569 162.25 28.4702L162.164 28.4706C161.493 28.4946 160.83 28.3199 160.258 27.9678L165.908 25.6328L170.467 23.7474L169.579 21.6461L169.548 21.5728L169.51 21.4853C169.437 21.324 169.359 21.1673 169.277 21.0128C169.252 20.9642 169.226 20.9159 169.199 20.868C169.132 20.7479 169.063 20.6301 168.992 20.5141C168.957 20.458 168.922 20.4019 168.886 20.3465C168.828 20.2582 168.77 20.1707 168.71 20.085H168.707ZM133.44 16.6098L133.576 16.611C138.054 16.6891 141.661 20.343 141.666 24.8412C141.666 28.171 139.662 31.1726 136.588 32.4468C133.514 33.7209 129.976 33.0165 127.623 30.6624C125.27 28.3083 124.566 24.7675 125.84 21.6914C127.113 18.6153 130.113 16.6098 133.44 16.6098ZM149.364 16.609V6.91602H144.843V16.609H143.531V21.1332H144.843V28.6446C144.846 31.0889 146.825 33.0696 149.268 33.0723H151.528V28.548H149.364V21.1332H151.528V16.609H149.364ZM76.3741 11.4402H72.5591V28.56H76.3737C78.5023 28.5574 80.2268 26.8317 80.2295 24.7017V15.2982C80.2268 13.1685 78.5023 11.4429 76.3741 11.4402ZM130.82 22.2192C131.879 21.1587 133.473 20.8415 134.858 21.4153C136.242 21.9892 137.145 23.3411 137.145 24.8408C137.143 26.8878 135.485 28.5465 133.44 28.5492C131.941 28.5488 130.59 27.6454 130.017 26.2601C129.443 24.8745 129.76 23.2798 130.82 22.2192ZM95.5115 21.1512C95.0693 21.1497 94.6315 21.2414 94.2266 21.4202C93.0896 21.9257 92.3007 22.9881 92.1422 24.2199L92.1332 24.2943L97.7717 21.9641C97.7486 21.9428 97.7254 21.9218 97.7015 21.902C97.0745 21.4164 96.3044 21.1523 95.5115 21.1512ZM160.62 21.4202C161.025 21.2414 161.463 21.1497 161.905 21.1512C162.698 21.1523 163.468 21.4164 164.095 21.902C164.119 21.9218 164.142 21.9428 164.165 21.9641L158.527 24.2943L158.536 24.2199C158.694 22.9881 159.483 21.9257 160.62 21.4202Z" fill="#202020"/>
</svg>